name rise30.3154peak39.0474fall46.5389.mot
datacolumns 19
datarows 32
range 8.16496800000000 8.21663700000000
endheader
time	ground_force1_vx	ground_force1_vy	ground_force1_vz	ground_force1_px	ground_force1_py	ground_force1_pz	ground_force2_vx	ground_force2_vy	ground_force2_vz	ground_force2_px	ground_force2_py	ground_force2_pz	ground_torque1_x	ground_torque1_y	ground_torque1_z	ground_torque2_x	ground_torque2_y	ground_torque2_z	
8.16496800000000	-11.28129200000000	41.54353500000000	-5.94022400000000	0.29683900000000	0.00000000000000	0.14390500000000	-34.31245700000000	785.31423700000005	-54.76366800000000	0.16094500000000	0.00000000000000	-0.07316900000000	0.00000000000000	-1.90535800000000	0.00000000000000	0.00000000000000	-22.68082500000000	0.00000000000000	
8.16663900000000	-12.55559600000000	48.98211000000000	-6.65850800000000	0.30396600000000	0.00000000000000	0.14452200000000	-34.95573000000000	783.44753500000002	-54.62974400000000	0.15992700000000	0.00000000000000	-0.07307600000000	0.00000000000000	-2.20159900000000	0.00000000000000	0.00000000000000	-22.62420700000000	0.00000000000000	
8.16830700000000	-13.66561700000000	56.58621900000000	-7.30152100000000	0.31041200000000	0.00000000000000	0.14506600000000	-35.61782000000000	781.46243800000002	-54.47931600000000	0.15891600000000	0.00000000000000	-0.07298000000000	0.00000000000000	-2.48495100000000	0.00000000000000	0.00000000000000	-22.56687100000000	0.00000000000000	
8.16997300000000	-14.58089100000000	64.26203800000000	-7.85264400000000	0.31629700000000	0.00000000000000	0.14555000000000	-36.29841400000000	779.35553100000004	-54.31197700000000	0.15791400000000	0.00000000000000	-0.07288100000000	0.00000000000000	-2.74851000000000	0.00000000000000	0.00000000000000	-22.50877500000000	0.00000000000000	
8.17165000000000	-15.28201900000000	71.93608700000000	-8.30063800000000	0.32171400000000	0.00000000000000	0.14598500000000	-36.99709100000000	777.12333400000000	-54.12731700000000	0.15692200000000	0.00000000000000	-0.07277800000000	0.00000000000000	-2.98694200000000	0.00000000000000	0.00000000000000	-22.44986000000000	0.00000000000000	
8.17330300000000	-15.76067700000000	79.55775600000000	-8.63971600000000	0.32673600000000	0.00000000000000	0.14637800000000	-37.71332200000000	774.76230599999997	-53.92493200000000	0.15594100000000	0.00000000000000	-0.07267200000000	0.00000000000000	-3.19663100000000	0.00000000000000	0.00000000000000	-22.39005000000000	0.00000000000000	
8.17497100000000	-16.01872300000000	87.09952400000000	-8.86916600000000	0.33142100000000	0.00000000000000	0.14673600000000	-38.44646700000000	772.26885800000002	-53.70441900000000	0.15497200000000	0.00000000000000	-0.07256200000000	0.00000000000000	-3.37566500000000	0.00000000000000	0.00000000000000	-22.32925600000000	0.00000000000000	
8.17663400000000	-16.06662900000000	94.55523800000000	-8.99261500000000	0.33581500000000	0.00000000000000	0.14706500000000	-39.19577700000000	769.63935800000002	-53.46538300000000	0.15401700000000	0.00000000000000	-0.07244800000000	0.00000000000000	-3.52368000000000	0.00000000000000	0.00000000000000	-22.26737200000000	0.00000000000000	
8.17830200000000	-15.92147700000000	101.93693600000000	-9.01707800000000	0.33995500000000	0.00000000000000	0.14736900000000	-39.96039100000000	766.87014399999998	-53.20743700000000	0.15307600000000	0.00000000000000	-0.07233100000000	0.00000000000000	-3.64160200000000	0.00000000000000	0.00000000000000	-22.20427600000000	0.00000000000000	
8.17997600000000	-15.60476800000000	109.27072900000000	-8.95188400000000	0.34387300000000	0.00000000000000	0.14765100000000	-40.73933700000000	763.95753600000000	-52.93020500000000	0.15215100000000	0.00000000000000	-0.07220900000000	0.00000000000000	-3.73133200000000	0.00000000000000	0.00000000000000	-22.13983200000000	0.00000000000000	
8.18163900000000	-15.14024900000000	116.59224500000001	-8.80761300000000	0.34759200000000	0.00000000000000	0.14791400000000	-41.53153300000000	760.89784999999995	-52.63332300000000	0.15124300000000	0.00000000000000	-0.07208400000000	0.00000000000000	-3.79539500000000	0.00000000000000	0.00000000000000	-22.07388700000000	0.00000000000000	
8.18330600000000	-14.55194000000000	123.94208999999999	-8.59510700000000	0.35113400000000	0.00000000000000	0.14816100000000	-42.33578800000000	757.68740400000002	-52.31644500000000	0.15035300000000	0.00000000000000	-0.07195400000000	0.00000000000000	-3.83660800000000	0.00000000000000	0.00000000000000	-22.00627600000000	0.00000000000000	
8.18497000000000	-13.86248100000000	131.36167599999999	-8.32464500000000	0.35451600000000	0.00000000000000	0.14839300000000	-43.15080400000000	754.32253800000001	-51.97924000000000	0.14948100000000	0.00000000000000	-0.07182100000000	0.00000000000000	-3.85777100000000	0.00000000000000	0.00000000000000	-21.93681900000000	0.00000000000000	
8.18664200000000	-13.09186900000000	138.88968800000001	-8.00529100000000	0.35775200000000	0.00000000000000	0.14861300000000	-43.97517400000000	750.79962499999999	-51.62140200000000	0.14863000000000	0.00000000000000	-0.07168300000000	0.00000000000000	-3.86141600000000	0.00000000000000	0.00000000000000	-21.86532300000000	0.00000000000000	
8.18830800000000	-12.25662000000000	146.55934900000000	-7.64446000000000	0.36085500000000	0.00000000000000	0.14882100000000	-44.80739000000000	747.11508700000002	-51.24264400000000	0.14779900000000	0.00000000000000	-0.07154100000000	0.00000000000000	-3.84962300000000	0.00000000000000	0.00000000000000	-21.79158100000000	0.00000000000000	
8.18997500000000	-11.36934900000000	154.39654999999999	-7.24768800000000	0.36383500000000	0.00000000000000	0.14902000000000	-45.64584200000000	743.26540999999997	-50.84270900000000	0.14699000000000	0.00000000000000	-0.07139400000000	0.00000000000000	-3.82389600000000	0.00000000000000	0.00000000000000	-21.71537700000000	0.00000000000000	
8.19163800000000	-10.43871600000000	162.41883000000001	-6.81858000000000	0.36670000000000	0.00000000000000	0.14921000000000	-46.48882400000000	739.24715900000001	-50.42136800000000	0.14620400000000	0.00000000000000	-0.07124300000000	0.00000000000000	-3.78511400000000	0.00000000000000	0.00000000000000	-21.63648100000000	0.00000000000000	
8.19330500000000	-9.46967900000000	170.63513900000001	-6.35891800000000	0.36945800000000	0.00000000000000	0.14939200000000	-47.33453600000000	735.05700100000001	-49.97842500000000	0.14544100000000	0.00000000000000	-0.07108800000000	0.00000000000000	-3.73353000000000	0.00000000000000	0.00000000000000	-21.55465500000000	0.00000000000000	
8.19497400000000	-8.46398300000000	179.04624200000001	-5.86889200000000	0.37211600000000	0.00000000000000	0.14956700000000	-48.18108600000000	730.69171500000004	-49.51371700000000	0.14470200000000	0.00000000000000	-0.07092800000000	0.00000000000000	-3.66883500000000	0.00000000000000	0.00000000000000	-21.46965100000000	0.00000000000000	
8.19664000000000	-7.42080600000000	187.64563200000001	-5.34740300000000	0.37467800000000	0.00000000000000	0.14973600000000	-49.02650100000000	726.14821600000005	-49.02712000000000	0.14398800000000	0.00000000000000	-0.07076400000000	0.00000000000000	-3.59023700000000	0.00000000000000	0.00000000000000	-21.38121300000000	0.00000000000000	
8.19830800000000	-6.33747400000000	196.42077900000001	-4.79241900000000	0.37714900000000	0.00000000000000	0.14990000000000	-49.86872800000000	721.42357500000003	-48.51854700000000	0.14329800000000	0.00000000000000	-0.07059600000000	0.00000000000000	-3.49657900000000	0.00000000000000	0.00000000000000	-21.28907900000000	0.00000000000000	
8.19997000000000	-5.21019100000000	205.35456800000000	-4.20133200000000	0.37953300000000	0.00000000000000	0.15005800000000	-50.70563700000000	716.51503300000002	-47.98795700000000	0.14263500000000	0.00000000000000	-0.07042200000000	0.00000000000000	-3.38646500000000	0.00000000000000	0.00000000000000	-21.19297900000000	0.00000000000000	
8.20164100000000	-4.03472200000000	214.42678400000000	-3.57130200000000	0.38183300000000	0.00000000000000	0.15021200000000	-51.53503400000000	711.42002700000000	-47.43534800000000	0.14199700000000	0.00000000000000	-0.07024500000000	0.00000000000000	-3.25837600000000	0.00000000000000	0.00000000000000	-21.09264200000000	0.00000000000000	
8.20330700000000	-2.80698600000000	223.61551700000001	-2.89955500000000	0.38405200000000	0.00000000000000	0.15036200000000	-52.35466100000000	706.13620600000002	-46.86077000000000	0.14138600000000	0.00000000000000	-0.07006200000000	0.00000000000000	-3.11078700000000	0.00000000000000	0.00000000000000	-20.98779000000000	0.00000000000000	
8.20497100000000	-1.52353200000000	232.89841899999999	-2.18363200000000	0.38619100000000	0.00000000000000	0.15050800000000	-53.16220500000000	700.66145100000006	-46.26431700000000	0.14080200000000	0.00000000000000	-0.06987500000000	0.00000000000000	-2.94226800000000	0.00000000000000	0.00000000000000	-20.87814500000000	0.00000000000000	
8.20663700000000	-0.18189200000000	242.25373099999999	-1.42156800000000	0.38825400000000	0.00000000000000	0.15065100000000	-53.95530500000000	694.99389399999995	-45.64613400000000	0.14024500000000	0.00000000000000	-0.06968400000000	0.00000000000000	-2.75155300000000	0.00000000000000	0.00000000000000	-20.76342900000000	0.00000000000000	
8.20830600000000	1.21920300000000	251.66107099999999	-0.61201600000000	0.39024000000000	0.00000000000000	0.15079100000000	-54.73156000000000	689.13193400000000	-45.00641800000000	0.13971500000000	0.00000000000000	-0.06948800000000	0.00000000000000	-2.53760500000000	0.00000000000000	0.00000000000000	-20.64336200000000	0.00000000000000	
8.20997000000000	2.67972500000000	261.10194999999999	0.24569700000000	0.39215200000000	0.00000000000000	0.15092800000000	-55.48853400000000	683.07425699999999	-44.34541700000000	0.13921300000000	0.00000000000000	-0.06928700000000	0.00000000000000	-2.29964100000000	0.00000000000000	0.00000000000000	-20.51766900000000	0.00000000000000	
8.21163700000000	4.19836000000000	270.56006100000002	1.15156200000000	0.39399000000000	0.00000000000000	0.15106200000000	-56.22376700000000	676.81984199999999	-43.66343700000000	0.13873800000000	0.00000000000000	-0.06908200000000	0.00000000000000	-2.03715200000000	0.00000000000000	0.00000000000000	-20.38607600000000	0.00000000000000	
8.21330400000000	5.77259500000000	280.02134300000000	2.10492600000000	0.39575500000000	0.00000000000000	0.15119500000000	-56.93478000000000	670.36798399999998	-42.96083400000000	0.13829100000000	0.00000000000000	-0.06887300000000	0.00000000000000	-1.74989600000000	0.00000000000000	0.00000000000000	-20.24831600000000	0.00000000000000	
8.21497500000000	7.39888100000000	289.47387800000001	3.10456200000000	0.39744700000000	0.00000000000000	0.15132500000000	-57.61908700000000	663.71829300000002	-42.23802600000000	0.13787100000000	0.00000000000000	-0.06865900000000	0.00000000000000	-1.43787900000000	0.00000000000000	0.00000000000000	-20.10412500000000	0.00000000000000	
8.21663700000000	9.07282000000000	298.90765499999998	4.14875600000000	0.39906700000000	0.00000000000000	0.15145300000000	-58.27419900000000	656.87071000000003	-41.49548300000000	0.13747800000000	0.00000000000000	-0.06844000000000	0.00000000000000	-1.10133300000000	0.00000000000000	0.00000000000000	-19.95325100000000	0.00000000000000	
